# xmcd
#
# Track frame offsets:
#	150
#	21010
#	37230
#	54283
#	67903
#	82372
#	100773
#	116605
#	137470
#	153666
#	173601
#	186588
#	203949
#	221212
#	239352
#	255522
#
# Disc length: 3629 seconds
#
# Revision: 0
# Processed by: cddbd v1.5.2PL0 Copyright (c) Steve Scherf et al.
# Submitted via: SynApp - FreeCDDB Version: 2.6
#
DISCID=e60e2b10
DTITLE=Darden Smith - After All This Time - The Best Of Darden Smith
DYEAR=2009
DGENRE=Alt Country
TTITLE0=Darden Smith - Two Dollar Novels
TTITLE1=Darden Smith - Driving Rain
TTITLE2=Darden Smith - Midnight Train
TTITLE3=Darden Smith - Frankie and Sue
TTITLE4=Boo Hewerdine and Darden Smith - Reminds Me (A Little Of You)
TTITLE5=Darden Smith - Loving Arms
TTITLE6=Darden Smith - Levee Song
TTITLE7=Darden Smith - Little Victories
TTITLE8=Darden Smith - Broken Branches
TTITLE9=Darden Smith - Perfect Moment
TTITLE10=Darden Smith - After All This Time
TTITLE11=Darden Smith - Shooting Star
TTITLE12=Darden Smith - Make Love So Hard
TTITLE13=Darden Smith - Field of Crows
TTITLE14=Darden Smith - Sierra Diablo
TTITLE15=Harlem Parlor Music Club feat. Darden Smith - Dying to be Born Again
EXTD=
EXTT0=
EXTT1=
EXTT2=
EXTT3=
EXTT4=
EXTT5=
EXTT6=
EXTT7=
EXTT8=
EXTT9=
EXTT10=
EXTT11=
EXTT12=
EXTT13=
EXTT14=
EXTT15=
PLAYORDER=
